<svg xmlns="http://www.w3.org/2000/svg" version="1.1" xmlns:xlink="http://www.w3.org/1999/xlink" xmlns:svgjs="http://svgjs.dev/svgjs" width="1000" height="143" viewBox="0 0 1000 143"><g transform="matrix(1,0,0,1,-0.6060520878510829,0.19691757367252194)"><svg viewBox="0 0 396 57" data-background-color="#d2d6dc" preserveAspectRatio="xMidYMid meet" height="143" width="1000" xmlns="http://www.w3.org/2000/svg" xmlns:xlink="http://www.w3.org/1999/xlink"><defs></defs><g id="tight-bounds" transform="matrix(1,0,0,1,0.23999662678903633,-0.0784916202750594)"><svg viewBox="0 0 395.52 57.15698203592813" height="57.15698203592813" width="395.52"><g><svg viewBox="0 0 395.52 57.15698203592813" height="57.15698203592813" width="395.52"><g><svg viewBox="0 0 395.52 57.15698203592813" height="57.15698203592813" width="395.52"><g><svg viewBox="0 0 395.52 57.15698203592813" height="57.15698203592813" width="395.52"><g><svg viewBox="0 0 395.52 57.15698203592813" height="57.15698203592813" width="395.52"><g transform="matrix(1,0,0,1,0,0)"><svg width="395.52" viewBox="3.25 -35.900001525878906 250.47999572753906 36.20000076293945" height="57.15698203592813" data-palette-color="#636365"><path d="M7.8-25.35L7.8 0 3.85 0 3.85-25.35 7.8-25.35ZM7.65-35.15Q8.4-34.4 8.4-33.3 8.4-32.2 7.65-31.48 6.9-30.75 5.8-30.75 4.7-30.75 3.98-31.48 3.25-32.2 3.25-33.3 3.25-34.4 3.98-35.15 4.7-35.9 5.8-35.9 6.9-35.9 7.65-35.15ZM35.3-17.45L35.3 0 31.35 0 31.35-16.4Q31.35-19.2 29.92-20.68 28.5-22.15 26.2-22.15L26.2-22.15Q23.35-22.15 21.27-19.95 19.2-17.75 19.2-13.85L19.2-13.85 19.2 0 15.3 0 15.3-25.35 19.2-25.35 19.2-20.95Q21.45-25.7 27.2-25.7L27.2-25.7Q30.9-25.7 33.1-23.45 35.3-21.2 35.3-17.45L35.3-17.45ZM57.55-6.75L57.55-6.75Q57.55-3.5 55.27-1.6 53 0.3 49.05 0.3L49.05 0.3Q44.45 0.3 41.6-1.25L41.6-1.25 41.6-5.1Q44.95-3.1 48.8-3.1L48.8-3.1Q51.1-3.1 52.3-4 53.5-4.9 53.5-6.45L53.5-6.45Q53.5-8.25 52.17-9.25 50.85-10.25 47.75-11.5L47.75-11.5Q44.9-12.6 43.17-14.25 41.45-15.9 41.45-18.7L41.45-18.7Q41.45-21.85 43.82-23.73 46.2-25.6 49.75-25.6L49.75-25.6Q53.7-25.6 56.09-24.5L56.09-24.5 56.09-20.75Q53.8-22.15 49.8-22.15L49.8-22.15Q47.8-22.15 46.62-21.23 45.45-20.3 45.45-18.85L45.45-18.85Q45.45-17.95 45.8-17.28 46.15-16.6 47.17-15.95 48.2-15.3 48.67-15.08 49.15-14.85 50.75-14.15L50.75-14.15Q53.95-12.85 55.75-11.2 57.55-9.55 57.55-6.75ZM81.39-5L81.39-1.3Q78.44 0.25 74.19 0.25L74.19 0.25Q68.44 0.25 64.92-3.28 61.39-6.8 61.39-12.6L61.39-12.6Q61.39-18.65 64.54-22.15 67.69-25.65 72.64-25.65L72.64-25.65Q77.39-25.65 80.19-22.6 82.99-19.55 82.99-13.95L82.99-13.95Q82.99-12.35 82.74-11L82.74-11 65.44-11Q65.89-7.25 68.29-5.25 70.69-3.25 74.59-3.25L74.59-3.25Q78.84-3.25 81.39-5L81.39-5ZM72.64-22.2L72.64-22.2Q69.79-22.2 67.79-20.15 65.79-18.1 65.44-14.3L65.44-14.3 79.04-14.3 79.04-15.3Q79.04-18.45 77.34-20.33 75.64-22.2 72.64-22.2ZM92.89-13.85L92.89 0 88.94 0 88.99-25.35 92.89-25.35 92.89-20.9Q94.89-25.6 99.79-25.6L99.79-25.6Q100.69-25.6 101.19-25.5L101.19-25.5 101.19-21.6Q100.14-21.95 99.04-21.95L99.04-21.95Q96.39-21.95 94.64-19.5 92.89-17.05 92.89-13.85L92.89-13.85ZM117.99-4.4L117.99-0.65Q116.34 0.25 114.29 0.25L114.29 0.25Q106.79 0.25 106.79-7.4L106.79-7.4 106.79-22.15 102.74-22.15 102.74-25.35 106.79-25.35 106.79-31.65 110.74-31.65 110.74-25.35 117.74-25.35 117.74-22.15 110.74-22.15 110.74-7.3Q110.74-3.25 114.54-3.25L114.54-3.25Q116.49-3.25 117.99-4.4L117.99-4.4ZM134.64-15.15L134.64-11.7 122.94-11.7 122.94-15.15 134.64-15.15ZM161.13-17.45L161.13 0 157.18 0 157.18-16.4Q157.18-19.2 155.76-20.68 154.33-22.15 152.03-22.15L152.03-22.15Q149.18-22.15 147.11-19.95 145.03-17.75 145.03-13.85L145.03-13.85 145.03 0 141.13 0 141.13-25.35 145.03-25.35 145.03-20.95Q147.28-25.7 153.03-25.7L153.03-25.7Q156.73-25.7 158.93-23.45 161.13-21.2 161.13-17.45L161.13-17.45ZM175.88-3.05L175.88-3.05Q178.58-3.05 180.18-4.58 181.78-6.1 181.78-8.45L181.78-8.45 181.78-11.7 177.38-11.7Q174.18-11.7 172.58-10.45 170.98-9.2 170.98-7.3 170.98-5.4 172.23-4.23 173.48-3.05 175.88-3.05ZM181.83 0L181.83-3Q179.88 0.25 174.73 0.25L174.73 0.25Q171.18 0.25 169.01-1.85 166.83-3.95 166.83-7.15L166.83-7.15Q166.83-10.8 169.61-12.83 172.38-14.85 177.18-14.85L177.18-14.85 181.78-14.85 181.78-16.15Q181.78-19.15 180.43-20.68 179.08-22.2 175.88-22.2L175.88-22.2Q171.83-22.2 168.68-20.05L168.68-20.05 168.68-24Q171.53-25.75 176.18-25.75L176.18-25.75Q185.73-25.75 185.73-16.05L185.73-16.05 185.73 0 181.83 0ZM226.63-17.4L226.63 0 222.68 0 222.68-16.4Q222.68-22.15 217.83-22.15L217.83-22.15Q215.43-22.15 213.53-19.98 211.63-17.8 211.63-13.85L211.63-13.85 211.63 0 207.68 0 207.68-16.4Q207.68-22.15 202.83-22.15L202.83-22.15Q200.43-22.15 198.53-19.98 196.63-17.8 196.63-13.85L196.63-13.85 196.63 0 192.73 0 192.73-25.35 196.63-25.35 196.63-21.25Q198.73-25.7 203.78-25.7L203.78-25.7Q209.63-25.7 211.18-20.75L211.18-20.75Q212.28-23.15 214.25-24.43 216.23-25.7 218.68-25.7L218.68-25.7Q222.63-25.7 224.63-23.45 226.63-21.2 226.63-17.4L226.63-17.4ZM252.13-5L252.13-1.3Q249.18 0.25 244.93 0.25L244.93 0.25Q239.18 0.25 235.65-3.28 232.13-6.8 232.13-12.6L232.13-12.6Q232.13-18.65 235.28-22.15 238.43-25.65 243.38-25.65L243.38-25.65Q248.13-25.65 250.93-22.6 253.73-19.55 253.73-13.95L253.73-13.95Q253.73-12.35 253.48-11L253.48-11 236.18-11Q236.63-7.25 239.03-5.25 241.43-3.25 245.33-3.25L245.33-3.25Q249.58-3.25 252.13-5L252.13-5ZM243.38-22.2L243.38-22.2Q240.53-22.2 238.53-20.15 236.53-18.1 236.18-14.3L236.18-14.3 249.78-14.3 249.78-15.3Q249.78-18.45 248.08-20.33 246.38-22.2 243.38-22.2Z" opacity="1" transform="matrix(1,0,0,1,0,0)" fill="#636365" class="undefined-text-0" data-fill-palette-color="primary" id="text-0"></path></svg></g></svg></g></svg></g></svg></g></svg></g></svg><rect width="395.52" height="57.15698203592813" fill="none" stroke="none" visibility="hidden"></rect></g></svg></g></svg>